<mxfile host="app.diagrams.net" agent="Mozilla/5.0 (Windows NT 10.0; Win64; x64) AppleWebKit/537.36 (KHTML, like Gecko) Chrome/135.0.0.0 Safari/537.36 Edg/135.0.0.0" version="26.2.9">
  <diagram name="Page-1" id="F-2fQE1u2fP9hGUwSakx">
    <mxGraphModel dx="1113" dy="566" grid="1" gridSize="10" guides="1" tooltips="1" connect="1" arrows="1" fold="1" page="1" pageScale="1" pageWidth="1400" pageHeight="850" math="0" shadow="0">
      <root>
        <mxCell id="0" />
        <mxCell id="1" parent="0" />
        <mxCell id="Nut4Go3cakpvQzTtI7Vf-28" value="" style="rounded=1;whiteSpace=wrap;html=1;" vertex="1" parent="1">
          <mxGeometry x="665" y="66" width="175" height="295" as="geometry" />
        </mxCell>
        <mxCell id="Nut4Go3cakpvQzTtI7Vf-21" value="" style="rounded=1;whiteSpace=wrap;html=1;fillColor=#FFFFFF;" vertex="1" parent="1">
          <mxGeometry x="300" y="365" width="660" height="155" as="geometry" />
        </mxCell>
        <mxCell id="Nut4Go3cakpvQzTtI7Vf-2" value="" style="rounded=1;whiteSpace=wrap;html=1;" vertex="1" parent="1">
          <mxGeometry x="111" y="65" width="270" height="295" as="geometry" />
        </mxCell>
        <mxCell id="Nut4Go3cakpvQzTtI7Vf-1" value="API Layer" style="text;html=1;align=center;verticalAlign=middle;whiteSpace=wrap;rounded=0;" vertex="1" parent="1">
          <mxGeometry x="120" y="70" width="60" height="30" as="geometry" />
        </mxCell>
        <mxCell id="Nut4Go3cakpvQzTtI7Vf-5" value="" style="group" vertex="1" connectable="0" parent="1">
          <mxGeometry x="126" y="167" width="68" height="97.5" as="geometry" />
        </mxCell>
        <mxCell id="Nut4Go3cakpvQzTtI7Vf-3" value="" style="image;aspect=fixed;html=1;points=[];align=center;fontSize=12;image=img/lib/azure2/identity/Entra_ID_Protection.svg;" vertex="1" parent="Nut4Go3cakpvQzTtI7Vf-5">
          <mxGeometry width="68" height="60.440000000000005" as="geometry" />
        </mxCell>
        <mxCell id="Nut4Go3cakpvQzTtI7Vf-4" value="Entra ID" style="text;html=1;align=center;verticalAlign=middle;whiteSpace=wrap;rounded=0;" vertex="1" parent="Nut4Go3cakpvQzTtI7Vf-5">
          <mxGeometry x="4" y="67.5" width="60" height="30" as="geometry" />
        </mxCell>
        <mxCell id="Nut4Go3cakpvQzTtI7Vf-8" value="" style="group" vertex="1" connectable="0" parent="1">
          <mxGeometry x="280" y="167.5" width="65" height="90" as="geometry" />
        </mxCell>
        <mxCell id="Nut4Go3cakpvQzTtI7Vf-6" value="" style="image;aspect=fixed;html=1;points=[];align=center;fontSize=12;image=img/lib/azure2/app_services/API_Management_Services.svg;" vertex="1" parent="Nut4Go3cakpvQzTtI7Vf-8">
          <mxGeometry width="65" height="60" as="geometry" />
        </mxCell>
        <mxCell id="Nut4Go3cakpvQzTtI7Vf-7" value="APIM" style="text;html=1;align=center;verticalAlign=middle;whiteSpace=wrap;rounded=0;" vertex="1" parent="Nut4Go3cakpvQzTtI7Vf-8">
          <mxGeometry x="2" y="60" width="60" height="30" as="geometry" />
        </mxCell>
        <mxCell id="Nut4Go3cakpvQzTtI7Vf-9" style="edgeStyle=orthogonalEdgeStyle;rounded=0;orthogonalLoop=1;jettySize=auto;html=1;" edge="1" parent="1" source="Nut4Go3cakpvQzTtI7Vf-3" target="Nut4Go3cakpvQzTtI7Vf-6">
          <mxGeometry relative="1" as="geometry" />
        </mxCell>
        <mxCell id="Nut4Go3cakpvQzTtI7Vf-10" value="" style="rounded=1;whiteSpace=wrap;html=1;" vertex="1" parent="1">
          <mxGeometry x="390" y="65" width="270" height="295" as="geometry" />
        </mxCell>
        <mxCell id="Nut4Go3cakpvQzTtI7Vf-11" value="Data Ingest" style="text;html=1;align=center;verticalAlign=middle;whiteSpace=wrap;rounded=0;" vertex="1" parent="1">
          <mxGeometry x="370" y="70" width="140" height="30" as="geometry" />
        </mxCell>
        <mxCell id="Nut4Go3cakpvQzTtI7Vf-32" value="" style="edgeStyle=orthogonalEdgeStyle;rounded=0;orthogonalLoop=1;jettySize=auto;html=1;" edge="1" parent="1" source="Nut4Go3cakpvQzTtI7Vf-12" target="Nut4Go3cakpvQzTtI7Vf-31">
          <mxGeometry relative="1" as="geometry" />
        </mxCell>
        <mxCell id="Nut4Go3cakpvQzTtI7Vf-12" value="" style="image;aspect=fixed;html=1;points=[];align=center;fontSize=12;image=img/lib/azure2/other/Azure_Monitor_Dashboard.svg;" vertex="1" parent="1">
          <mxGeometry x="488" y="415" width="68" height="63.2" as="geometry" />
        </mxCell>
        <mxCell id="Nut4Go3cakpvQzTtI7Vf-20" style="edgeStyle=orthogonalEdgeStyle;rounded=0;orthogonalLoop=1;jettySize=auto;html=1;" edge="1" parent="1" source="Nut4Go3cakpvQzTtI7Vf-13" target="Nut4Go3cakpvQzTtI7Vf-12">
          <mxGeometry relative="1" as="geometry" />
        </mxCell>
        <mxCell id="Nut4Go3cakpvQzTtI7Vf-13" value="" style="image;aspect=fixed;html=1;points=[];align=center;fontSize=12;image=img/lib/azure2/databases/Data_Factory.svg;" vertex="1" parent="1">
          <mxGeometry x="488" y="110" width="68" height="68" as="geometry" />
        </mxCell>
        <mxCell id="Nut4Go3cakpvQzTtI7Vf-14" value="Data Factory" style="text;html=1;align=center;verticalAlign=middle;whiteSpace=wrap;rounded=0;" vertex="1" parent="1">
          <mxGeometry x="488" y="178" width="60" height="30" as="geometry" />
        </mxCell>
        <mxCell id="Nut4Go3cakpvQzTtI7Vf-15" style="edgeStyle=orthogonalEdgeStyle;rounded=0;orthogonalLoop=1;jettySize=auto;html=1;" edge="1" parent="1" source="Nut4Go3cakpvQzTtI7Vf-6" target="Nut4Go3cakpvQzTtI7Vf-13">
          <mxGeometry relative="1" as="geometry" />
        </mxCell>
        <mxCell id="Nut4Go3cakpvQzTtI7Vf-16" style="edgeStyle=orthogonalEdgeStyle;rounded=0;orthogonalLoop=1;jettySize=auto;html=1;entryX=0;entryY=0.601;entryDx=0;entryDy=0;entryPerimeter=0;" edge="1" parent="1" source="Nut4Go3cakpvQzTtI7Vf-6" target="Nut4Go3cakpvQzTtI7Vf-12">
          <mxGeometry relative="1" as="geometry" />
        </mxCell>
        <mxCell id="Nut4Go3cakpvQzTtI7Vf-17" value="" style="image;aspect=fixed;html=1;points=[];align=center;fontSize=12;image=img/lib/azure2/analytics/Event_Hubs.svg;" vertex="1" parent="1">
          <mxGeometry x="563" y="230" width="67" height="60" as="geometry" />
        </mxCell>
        <mxCell id="Nut4Go3cakpvQzTtI7Vf-18" value="Event Hub" style="text;html=1;align=center;verticalAlign=middle;whiteSpace=wrap;rounded=0;" vertex="1" parent="1">
          <mxGeometry x="567" y="290" width="60" height="30" as="geometry" />
        </mxCell>
        <mxCell id="Nut4Go3cakpvQzTtI7Vf-19" style="edgeStyle=orthogonalEdgeStyle;rounded=0;orthogonalLoop=1;jettySize=auto;html=1;entryX=0.015;entryY=0.583;entryDx=0;entryDy=0;entryPerimeter=0;" edge="1" parent="1" source="Nut4Go3cakpvQzTtI7Vf-6" target="Nut4Go3cakpvQzTtI7Vf-17">
          <mxGeometry relative="1" as="geometry" />
        </mxCell>
        <mxCell id="Nut4Go3cakpvQzTtI7Vf-22" value="Monitor &amp;amp; Govern" style="text;html=1;align=center;verticalAlign=middle;whiteSpace=wrap;rounded=0;" vertex="1" parent="1">
          <mxGeometry x="251" y="366" width="221" height="30" as="geometry" />
        </mxCell>
        <mxCell id="Nut4Go3cakpvQzTtI7Vf-23" value="Azure Monitor" style="text;html=1;align=center;verticalAlign=middle;whiteSpace=wrap;rounded=0;" vertex="1" parent="1">
          <mxGeometry x="494" y="478.2" width="60" height="30" as="geometry" />
        </mxCell>
        <mxCell id="Nut4Go3cakpvQzTtI7Vf-25" value="" style="endArrow=classic;html=1;rounded=0;exitX=1.03;exitY=0.383;exitDx=0;exitDy=0;exitPerimeter=0;entryX=-0.05;entryY=0.58;entryDx=0;entryDy=0;entryPerimeter=0;" edge="1" parent="1" source="Nut4Go3cakpvQzTtI7Vf-17" target="Nut4Go3cakpvQzTtI7Vf-24">
          <mxGeometry width="50" height="50" relative="1" as="geometry">
            <mxPoint x="540" y="320" as="sourcePoint" />
            <mxPoint x="590" y="270" as="targetPoint" />
          </mxGeometry>
        </mxCell>
        <mxCell id="Nut4Go3cakpvQzTtI7Vf-26" value="" style="endArrow=classic;html=1;rounded=0;exitX=0.941;exitY=0.618;exitDx=0;exitDy=0;exitPerimeter=0;" edge="1" parent="1" target="Nut4Go3cakpvQzTtI7Vf-24">
          <mxGeometry width="50" height="50" relative="1" as="geometry">
            <mxPoint x="559.988" y="152.024" as="sourcePoint" />
            <mxPoint x="768" y="180" as="targetPoint" />
          </mxGeometry>
        </mxCell>
        <mxCell id="Nut4Go3cakpvQzTtI7Vf-30" value="Processing &amp;amp; Transform" style="text;html=1;align=center;verticalAlign=middle;whiteSpace=wrap;rounded=0;" vertex="1" parent="1">
          <mxGeometry x="645" y="67" width="185" height="30" as="geometry" />
        </mxCell>
        <mxCell id="Nut4Go3cakpvQzTtI7Vf-31" value="" style="image;aspect=fixed;html=1;points=[];align=center;fontSize=12;image=img/lib/azure2/analytics/Log_Analytics_Workspaces.svg;" vertex="1" parent="1">
          <mxGeometry x="601" y="414.5" width="64" height="64" as="geometry" />
        </mxCell>
        <mxCell id="Nut4Go3cakpvQzTtI7Vf-33" value="Log analytics" style="text;html=1;align=center;verticalAlign=middle;whiteSpace=wrap;rounded=0;" vertex="1" parent="1">
          <mxGeometry x="590" y="478.5" width="60" height="30" as="geometry" />
        </mxCell>
        <mxCell id="Nut4Go3cakpvQzTtI7Vf-34" value="" style="group" vertex="1" connectable="0" parent="1">
          <mxGeometry x="721" y="156" width="60" height="88" as="geometry" />
        </mxCell>
        <mxCell id="Nut4Go3cakpvQzTtI7Vf-24" value="" style="image;aspect=fixed;html=1;points=[];align=center;fontSize=12;image=img/lib/azure2/databases/Azure_Synapse_Analytics.svg;" vertex="1" parent="Nut4Go3cakpvQzTtI7Vf-34">
          <mxGeometry width="60" height="69" as="geometry" />
        </mxCell>
        <mxCell id="Nut4Go3cakpvQzTtI7Vf-29" value="Synapse" style="text;html=1;align=center;verticalAlign=middle;whiteSpace=wrap;rounded=0;" vertex="1" parent="Nut4Go3cakpvQzTtI7Vf-34">
          <mxGeometry y="58" width="60" height="30" as="geometry" />
        </mxCell>
        <mxCell id="Nut4Go3cakpvQzTtI7Vf-40" value="" style="edgeStyle=orthogonalEdgeStyle;rounded=0;orthogonalLoop=1;jettySize=auto;html=1;" edge="1" parent="1" source="Nut4Go3cakpvQzTtI7Vf-35" target="Nut4Go3cakpvQzTtI7Vf-39">
          <mxGeometry relative="1" as="geometry" />
        </mxCell>
        <mxCell id="Nut4Go3cakpvQzTtI7Vf-35" value="" style="image;aspect=fixed;html=1;points=[];align=center;fontSize=12;image=img/lib/azure2/databases/Azure_Purview_Accounts.svg;" vertex="1" parent="1">
          <mxGeometry x="767" y="415" width="68" height="42" as="geometry" />
        </mxCell>
        <mxCell id="Nut4Go3cakpvQzTtI7Vf-36" style="edgeStyle=orthogonalEdgeStyle;rounded=0;orthogonalLoop=1;jettySize=auto;html=1;exitX=1.017;exitY=0.551;exitDx=0;exitDy=0;exitPerimeter=0;" edge="1" parent="1" source="Nut4Go3cakpvQzTtI7Vf-24" target="Nut4Go3cakpvQzTtI7Vf-35">
          <mxGeometry relative="1" as="geometry" />
        </mxCell>
        <mxCell id="Nut4Go3cakpvQzTtI7Vf-38" value="Purview" style="text;html=1;align=center;verticalAlign=middle;whiteSpace=wrap;rounded=0;" vertex="1" parent="1">
          <mxGeometry x="771" y="457" width="60" height="30" as="geometry" />
        </mxCell>
        <mxCell id="Nut4Go3cakpvQzTtI7Vf-39" value="" style="image;aspect=fixed;html=1;points=[];align=center;fontSize=12;image=img/lib/azure2/security/Key_Vaults.svg;" vertex="1" parent="1">
          <mxGeometry x="870" y="402" width="68" height="68" as="geometry" />
        </mxCell>
        <mxCell id="Nut4Go3cakpvQzTtI7Vf-41" value="Key Vault" style="text;html=1;align=center;verticalAlign=middle;whiteSpace=wrap;rounded=0;" vertex="1" parent="1">
          <mxGeometry x="874" y="470" width="60" height="30" as="geometry" />
        </mxCell>
        <mxCell id="Nut4Go3cakpvQzTtI7Vf-42" value="" style="rounded=1;whiteSpace=wrap;html=1;" vertex="1" parent="1">
          <mxGeometry x="850" y="66" width="175" height="295" as="geometry" />
        </mxCell>
        <mxCell id="Nut4Go3cakpvQzTtI7Vf-43" value="Presentation Layer" style="text;html=1;align=center;verticalAlign=middle;whiteSpace=wrap;rounded=0;" vertex="1" parent="1">
          <mxGeometry x="850" y="65" width="120" height="30" as="geometry" />
        </mxCell>
        <mxCell id="Nut4Go3cakpvQzTtI7Vf-44" value="" style="image;aspect=fixed;html=1;points=[];align=center;fontSize=12;image=img/lib/azure2/power_platform/PowerBI.svg;" vertex="1" parent="1">
          <mxGeometry x="919" y="156" width="51" height="68" as="geometry" />
        </mxCell>
        <mxCell id="Nut4Go3cakpvQzTtI7Vf-45" style="edgeStyle=orthogonalEdgeStyle;rounded=0;orthogonalLoop=1;jettySize=auto;html=1;" edge="1" parent="1" source="Nut4Go3cakpvQzTtI7Vf-24" target="Nut4Go3cakpvQzTtI7Vf-44">
          <mxGeometry relative="1" as="geometry" />
        </mxCell>
        <mxCell id="Nut4Go3cakpvQzTtI7Vf-46" value="Power BI" style="text;html=1;align=center;verticalAlign=middle;whiteSpace=wrap;rounded=0;" vertex="1" parent="1">
          <mxGeometry x="914.5" y="219.5" width="60" height="30" as="geometry" />
        </mxCell>
        <mxCell id="Nut4Go3cakpvQzTtI7Vf-48" value="NRT (B)" style="text;html=1;align=center;verticalAlign=middle;whiteSpace=wrap;rounded=0;" vertex="1" parent="1">
          <mxGeometry x="450" y="244" width="60" height="30" as="geometry" />
        </mxCell>
        <mxCell id="Nut4Go3cakpvQzTtI7Vf-49" value="Batch (A)" style="text;html=1;align=center;verticalAlign=middle;whiteSpace=wrap;rounded=0;" vertex="1" parent="1">
          <mxGeometry x="420" y="120" width="60" height="30" as="geometry" />
        </mxCell>
        <mxCell id="Nut4Go3cakpvQzTtI7Vf-50" value="ETL Batch" style="text;html=1;align=center;verticalAlign=middle;whiteSpace=wrap;rounded=0;" vertex="1" parent="1">
          <mxGeometry x="590" y="137.5" width="60" height="30" as="geometry" />
        </mxCell>
        <mxCell id="Nut4Go3cakpvQzTtI7Vf-51" value="Steaming" style="text;html=1;align=center;verticalAlign=middle;whiteSpace=wrap;rounded=0;" vertex="1" parent="1">
          <mxGeometry x="660" y="219.5" width="60" height="30" as="geometry" />
        </mxCell>
      </root>
    </mxGraphModel>
  </diagram>
</mxfile>
